<?xml version="1.0" standalone="no"?>
<!DOCTYPE svg PUBLIC "-//W3C//DTD SVG 20010904//EN"
 "http://www.w3.org/TR/2001/REC-SVG-20010904/DTD/svg10.dtd">
<svg version="1.0" xmlns="http://www.w3.org/2000/svg"
 width="344.000000pt" height="344.000000pt" viewBox="0 0 344.000000 344.000000"
 preserveAspectRatio="xMidYMid meet">
<metadata>
Created by potrace 1.14, written by Peter Selinger 2001-2017
</metadata>
<g transform="translate(0.000000,344.000000) scale(0.100000,-0.100000)"
fill="#000000" stroke="none">
<path d="M258 2048 c-22 -22 -23 -46 -2 -73 13 -18 27 -19 207 -20 193 -1 247
6 247 30 0 7 3 20 6 29 3 8 -3 22 -15 33 -19 16 -44 18 -223 19 -183 1 -203
-1 -220 -18z"/>
<path d="M1016 2057 c-18 -14 -296 -620 -296 -646 0 -24 31 -51 58 -51 28 0
36 12 137 235 148 324 132 294 143 265 5 -14 24 -56 42 -95 18 -38 49 -108 70
-155 106 -237 113 -250 155 -250 20 0 45 29 45 51 0 11 -10 41 -21 67 -28 62
-114 252 -146 322 -14 30 -43 96 -65 145 -22 50 -46 96 -52 103 -17 18 -52 22
-70 9z"/>
<path d="M1478 2051 c-11 -15 -13 -88 -13 -340 0 -307 1 -321 20 -335 27 -21
51 -20 73 2 18 18 19 41 18 339 -1 255 -4 323 -15 336 -18 23 -67 22 -83 -2z"/>
<path d="M1814 2013 c-65 -82 -70 -97 -50 -128 11 -17 25 -25 45 -25 24 0 38
12 78 63 28 34 53 71 57 81 10 30 -19 66 -54 66 -24 0 -38 -11 -76 -57z"/>
<path d="M2064 2049 c-20 -22 -18 -65 5 -81 27 -19 411 -19 434 0 24 20 27 50
7 75 -18 21 -23 22 -225 22 -176 0 -208 -2 -221 -16z"/>
<path d="M2652 2059 c-26 -10 -38 -50 -22 -78 13 -26 0 -23 150 -26 141 -2
165 -10 186 -61 12 -30 12 -39 0 -69 -20 -47 -46 -55 -187 -55 -164 0 -157 9
-157 -205 0 -151 2 -169 19 -186 24 -24 54 -24 77 -1 14 14 17 36 17 144 -1
107 2 129 15 132 8 2 56 4 105 5 115 2 166 25 209 95 24 39 30 58 29 104 -1
67 -11 97 -48 140 -48 58 -75 65 -231 67 -77 1 -150 -2 -162 -6z"/>
<path d="M441 1751 c-18 -18 -20 -34 -18 -189 2 -180 8 -202 51 -202 12 0 31
6 41 14 17 12 19 29 19 189 1 164 -1 178 -19 191 -27 21 -51 20 -74 -3z"/>
<path d="M1616 1754 c-22 -22 -20 -54 7 -91 75 -104 233 -294 248 -298 48 -15
91 34 68 77 -9 17 -143 192 -159 208 -3 3 -23 28 -45 55 -21 28 -44 53 -50 57
-17 13 -53 9 -69 -8z"/>
<path d="M2066 1754 c-18 -18 -18 -10 -18 -213 -1 -138 1 -156 18 -168 13 -10
67 -13 218 -13 111 0 206 4 212 8 6 4 16 16 22 27 11 21 1 52 -22 67 -6 4 -84
8 -173 8 l-163 0 0 94 0 94 46 0 c73 0 111 55 66 95 -26 24 -183 24 -206 1z"/>
<path d="M2910 1550 c-30 -30 -24 -56 22 -106 60 -65 92 -86 121 -79 29 8 47
42 37 70 -12 30 -113 125 -138 130 -14 2 -31 -4 -42 -15z"/>
<path d="M977 1472 c-31 -4 -57 -37 -53 -66 5 -35 35 -46 127 -46 79 0 89 2
103 22 20 29 20 41 -1 67 -15 17 -30 22 -83 24 -36 1 -77 1 -93 -1z"/>
</g>
</svg>
